<svg xmlns="http://www.w3.org/2000/svg" xmlns:xlink="http://www.w3.org/1999/xlink" version="1.1" width="256" height="256" viewBox="0 0 256 256" xml:space="preserve">

<defs>
</defs>
<g style="stroke: none; stroke-width: 0; stroke-dasharray: none; stroke-linecap: butt; stroke-linejoin: miter; stroke-miterlimit: 10; fill: none; fill-rule: nonzero; opacity: 1;" transform="translate(1.4065934065934016 1.4065934065934016) scale(2.81 2.81)" >
	<path d="M 74.555 90 c -0.246 0 -0.49 -0.091 -0.679 -0.266 L 45.999 63.998 H 15.445 c -0.552 0 -1 -0.447 -1 -1 V 27.001 c 0 -0.552 0.448 -1 1 -1 h 30.553 L 73.876 0.265 c 0.293 -0.27 0.719 -0.34 1.08 -0.181 C 75.319 0.243 75.555 0.603 75.555 1 v 88 c 0 0.397 -0.235 0.757 -0.599 0.916 C 74.827 89.973 74.69 90 74.555 90 z M 16.445 61.998 H 46.39 c 0.251 0 0.493 0.095 0.679 0.266 l 26.486 24.452 V 3.284 L 47.068 27.736 c -0.186 0.17 -0.428 0.265 -0.679 0.265 H 16.445 V 61.998 z" style="stroke: none; stroke-width: 1; stroke-dasharray: none; stroke-linecap: butt; stroke-linejoin: miter; stroke-miterlimit: 10; fill: rgb(0,0,0); fill-rule: nonzero; opacity: 1;" transform=" matrix(1 0 0 1 0 0) " stroke-linecap="round" />
</g>
</svg>